<svg width="213" height="53" viewBox="0 0 213 53" fill="none" xmlns="http://www.w3.org/2000/svg">
<g clip-path="url(#clip0_3290_5038)">
<path d="M96.6678 23.2699L111.198 52.9938L88.7137 43.095C84.2903 41.1467 82.1177 36.7501 83.5606 32.6525L90.9395 11.5469L96.6678 23.2699Z" fill="#19253F"/>
<path d="M90.9395 11.5469L111.195 0.00358631L111.2 0.00195312L131.461 11.5469H90.9395Z" fill="#19253F"/>
<path d="M133.2 43.1457L111.208 53.0003L125.743 23.2764L131.461 11.5469L138.361 32.9138C139.663 36.9461 137.51 41.2152 133.2 43.1457Z" fill="#19253F"/>
<path d="M96.6674 23.2695L111.197 52.9983L89.0225 35.5135L96.6674 23.2695Z" fill="#00B3C6"/>
<path d="M118.407 11.5466H103.988L111.194 0.00326636L111.198 0L111.199 0.00163318L118.407 11.5466Z" fill="#00B3C6"/>
<path d="M133.378 35.5135L111.198 52.9983L125.733 23.2695L133.378 35.5135Z" fill="#00B3C6"/>
<path d="M131.461 11.5469L125.733 23.2699L111.198 52.9987L96.6677 23.2699L90.9395 11.5469H131.461Z" fill="white"/>
<path d="M144.932 21.9904H151.197V36.3983H153.272V21.9904H159.512V19.9521H144.932V21.9904Z" fill="#19253F"/>
<path d="M164.502 36.3983H175.681V34.3356H166.552V29.1943H173.667V27.1561H166.552V21.9904H175.681V19.9521H164.502V36.3983Z" fill="#19253F"/>
<path d="M193.747 32.1736C193.141 32.9046 192.38 33.4971 191.517 33.9097C190.583 34.3544 189.552 34.5659 188.515 34.5254C187.478 34.485 186.467 34.1938 185.572 33.6778C184.599 33.1147 183.792 32.3134 183.228 31.3521C182.659 30.3793 182.359 29.2767 182.359 28.1544C182.359 27.0321 182.659 25.9294 183.228 24.9566C183.792 23.9957 184.6 23.1946 185.572 22.631C186.441 22.1284 187.42 21.8389 188.427 21.7869C189.433 21.7349 190.438 21.9219 191.355 22.3321C192.17 22.6986 192.897 23.2282 193.491 23.8869L193.809 24.238L195.383 22.8694L195.051 22.5166C194.247 21.6556 193.273 20.9644 192.188 20.485C190.97 19.9472 189.638 19.7045 188.305 19.7773C186.971 19.85 185.675 20.2361 184.525 20.903C183.245 21.6418 182.182 22.6948 181.441 23.9587C180.7 25.239 180.31 26.6869 180.31 28.1601C180.31 29.6333 180.7 31.0812 181.441 32.3614C182.18 33.6311 183.244 34.6889 184.527 35.4302C185.717 36.118 187.061 36.5067 188.44 36.5617C189.82 36.6166 191.192 36.3363 192.434 35.7454C193.577 35.2017 194.58 34.4112 195.368 33.4328L195.669 33.0604L194.045 31.8192L193.747 32.1736Z" fill="#19253F"/>
<path d="M210.949 19.9521V27.1561H202.584V19.9521H200.51V36.3983H202.584V29.1943H210.949V36.3983H213V19.9521H210.949Z" fill="#19253F"/>
<path d="M0 21.9904H6.26353V36.3983H8.33808V21.9904H14.5783V19.9521H0V21.9904Z" fill="#19253F"/>
<path d="M30.5196 30.0828C30.5243 30.6756 30.4113 31.2636 30.1871 31.8139C29.9696 32.3445 29.6463 32.827 29.2363 33.2332C28.8217 33.6433 28.3292 33.9696 27.7868 34.1935C27.2489 34.4134 26.6721 34.5266 26.0896 34.5266C25.507 34.5266 24.9302 34.4134 24.3924 34.1935C23.8505 33.9693 23.3587 33.6431 22.9445 33.2332C22.5335 32.8279 22.21 32.3451 21.9937 31.8139C21.7659 31.2643 21.6496 30.6762 21.6512 30.0828V19.957H19.5933V30.0828C19.5903 30.9358 19.7545 31.7814 20.077 32.5734C20.3911 33.3488 20.868 34.0506 21.4767 34.6328C22.0761 35.2423 22.7932 35.7281 23.5861 36.0618C24.3772 36.3938 25.2285 36.5649 26.0887 36.5649C26.9489 36.5649 27.8002 36.3938 28.5913 36.0618C29.374 35.7265 30.0826 35.2444 30.6775 34.6426C31.2882 34.0572 31.7667 33.3522 32.0821 32.5734C32.4043 31.7813 32.5685 30.9357 32.5659 30.0828V19.957H30.5196V30.0828Z" fill="#19253F"/>
<path d="M40.5337 19.9521H38.4824V36.3983H49.3954V34.3829H40.5337V19.9521Z" fill="#19253F"/>
<path d="M57.3592 19.9521H55.3096V36.3983H57.3592V19.9521Z" fill="#19253F"/>
<path d="M72.5957 20.7526C71.76 20.332 70.8334 20.1157 69.8945 20.1222H63.9551L63.98 36.227H65.6839V29.5016H69.8945C70.8334 29.508 71.76 29.2918 72.5957 28.8712C73.3943 28.4767 74.077 27.888 74.5788 27.1612C75.0634 26.4675 75.3228 25.6459 75.3228 24.8045C75.3228 23.9632 75.0634 23.1416 74.5788 22.4479C74.074 21.7274 73.3918 21.1442 72.5957 20.7526ZM73.1293 26.2711C72.7791 26.7427 72.3138 27.1201 71.7762 27.3686C71.1892 27.6453 70.5455 27.7861 69.8945 27.7802H65.6822L65.6606 21.8191H69.8945C70.5455 21.8134 71.1891 21.9542 71.7762 22.2306C72.3138 22.4791 72.7791 22.8566 73.1293 23.3281C73.451 23.7577 73.623 24.2778 73.6197 24.8111C73.6199 25.3369 73.448 25.8488 73.1293 26.2711V26.2711Z" fill="#19253F"/>
</g>
<defs>
<clipPath id="clip0_3290_5038">
<rect width="213" height="53" fill="white"/>
</clipPath>
</defs>
</svg>
